<svg width="600" height="200" viewBox="0 0 600 200" fill="none" xmlns="http://www.w3.org/2000/svg">
<g id="Frame 37" clip-path="url(#clip0_354_501)">
<g id="earth">
<path id="Vector" d="M299.499 181C345.062 181 381.998 144.064 381.998 98.5007C381.998 52.9376 345.062 16.0015 299.499 16.0015C253.936 16.0015 217 52.9376 217 98.5007C217 144.064 253.936 181 299.499 181Z" fill="#6AA6FF"/>
<path id="Vector_2" d="M323.347 38.4158C322.776 39.1555 322.185 39.9372 322.04 40.8605C321.802 42.3674 322.792 43.7644 323.73 44.9681C325.152 46.7954 326.742 48.7362 328.99 49.2965C333.178 50.3405 336.925 46.1479 341.228 45.8027C344.683 45.5253 347.89 47.7699 351.353 47.8953C355.283 48.0379 357.313 44.2937 358.108 40.4426C351.796 34.0713 344.453 28.7258 336.349 24.6731C333.191 28.7615 326.505 34.3284 323.347 38.4158Z" fill="#77F57C"/>
<path id="Vector_3" d="M378.215 73.7348C376.691 78.3852 372.405 77.1545 366.847 77.5822C359.71 78.1311 355.374 74.6217 348.782 73.3118C342.665 72.0957 337.288 76.3091 334.43 81.3814C332.308 85.1469 328.982 93.4808 331.775 97.3277C333.11 99.1659 335.113 100.383 337.062 101.551C339.867 103.233 342.687 104.921 345.72 106.145C349.207 107.552 353.208 108.514 355.426 111.55C357.253 114.051 357.401 117.395 357.084 120.475C356.222 128.837 348.94 136.258 355.589 143.856C358.087 146.71 361.487 148.289 365.28 148.293C375.772 134.454 382.001 117.206 382.001 98.5008C382 89.8714 380.673 81.553 378.215 73.7348Z" fill="#77F57C"/>
<path id="Vector_4" d="M303.341 32.7944C306.336 34.1593 310.103 32.8732 312.173 30.3134C314.242 27.7537 316.155 20.8463 315.671 17.5899C310.44 16.55 305.032 16 299.496 16C298.027 16 296.568 16.0399 295.117 16.1156C296.106 19.1434 297.865 21.7706 298.395 24.9156C298.933 28.101 300.402 31.4549 303.341 32.7944Z" fill="#77F57C"/>
<path id="Vector_5" d="M234.528 75.8679C238.54 80.0922 242.954 83.9344 247.691 87.3256C248.991 88.2566 250.395 89.2555 250.912 90.7692C252.414 95.1692 249.834 99.9196 252.463 104.935C254.948 109.677 260.437 112.635 261.856 117.797C262.962 121.823 261.261 126.194 262.223 130.258C263.388 135.186 268.148 138.513 269.867 143.278C270.96 146.309 270.727 149.66 271.525 152.782C272.324 155.904 274.84 159.087 278.049 158.793C281.926 158.439 283.519 153.66 283.821 149.778C284.125 145.897 284.522 141.216 287.997 139.461C289.846 138.528 292.26 138.673 293.707 137.191C296.11 134.73 293.693 130.697 293.775 127.257C293.863 123.591 296.879 120.754 299.668 118.372C303.182 115.371 306.696 112.369 310.21 109.368C312.65 107.304 313.274 103.608 312.272 100.573C311.271 97.5382 308.908 95.1158 306.248 93.3435C303.388 91.4369 299.705 90.1554 296.532 91.4773C294.117 92.4835 292.249 94.8934 289.637 95.0443C287.228 95.1832 285.15 93.2709 283.994 91.1523C282.839 89.0337 282.294 86.6237 281.124 84.514C277.762 78.4567 272.322 78.8258 266.455 77.9186C260.532 77.0027 254.508 74.2371 250.094 70.1902C249.387 69.5417 248.685 68.8206 248.405 67.9031C246.836 62.7691 255.929 60.4975 259.073 60.6012C261.652 60.6857 264.283 61.4379 266.766 60.7417C269.111 60.0849 270.904 58.254 272.897 56.8549C278.536 52.895 286.778 58.2944 287.869 47.5832C288.296 43.388 286.672 39.2856 285.079 35.3806C282.77 29.7189 280.692 24.3491 279.176 18.5261C255.712 24.4714 236.259 40.4726 225.664 61.6743C228.485 64.7099 227.658 63.2916 228.841 67.2676C229.831 70.5935 232.138 73.3523 234.528 75.8679Z" fill="#77F57C"/>
</g>
<path id="cloud1" d="M447.872 141.206C454.467 139.017 469.267 136.536 480.4 124.585C487.408 117.061 497.952 109.775 511.318 109.902C526.471 110.046 531.553 116.129 534.506 124.113C537.459 132.097 556.961 127.763 568.112 140.157C579.263 152.55 624.462 154.402 612.454 167.308L443.824 168.78C428.923 169.29 419.126 150.746 447.872 141.206Z" fill="white" fill-opacity="0.56"/>
<path id="cloud1_2" d="M18.8717 39.2059C25.4666 37.017 40.2673 34.5363 51.3995 22.5852C58.4078 15.0614 68.952 7.77534 82.3183 7.90213C97.4715 8.04587 102.553 14.1289 105.506 22.113C108.459 30.0971 127.961 25.7626 139.112 38.1566C150.263 50.5505 195.462 52.4017 183.454 65.3083L14.8243 66.78C-0.0768569 67.2899 -9.87368 48.7463 18.8717 39.2059Z" fill="white" fill-opacity="0.56"/>
<path id="cloud2" d="M493.056 57.8715C485.254 55.3855 462.145 59.5744 448.891 45.7477C440.548 37.0431 433.662 21.7199 417.898 22.0039C400.026 22.3258 379.648 29.4729 376.247 38.8158C372.847 48.1587 348.058 43.3014 335.033 57.8715C322.008 72.4415 276.621 74.4833 299.199 89.9933L498.113 89.9933C515.695 90.4365 527.059 68.7071 493.056 57.8715Z" fill="white" fill-opacity="0.56"/>
<g id="cloud3">
<path id="Rectangle 71" d="M239.334 137.159C235.956 136.037 228.374 134.767 222.672 128.645C219.082 124.791 213.681 121.059 206.835 121.124C199.073 121.198 196.47 124.314 194.958 128.403C193.445 132.493 183.456 130.273 177.744 136.621C172.032 142.969 148.88 143.918 155.031 150.529L241.407 151.283C249.039 151.544 254.058 142.045 239.334 137.159Z" fill="white" fill-opacity="0.56"/>
<path id="Rectangle 70" d="M207.92 138.393C201.606 136.356 182.902 139.788 172.175 128.459C165.421 121.326 159.849 108.771 147.089 109.003C132.624 109.267 116.13 115.123 113.378 122.779C110.626 130.434 90.5621 126.454 80.0199 138.393C69.4776 150.332 32.7426 152.005 51.0164 164.713L212.014 164.713C226.244 165.077 235.442 147.272 207.92 138.393Z" fill="white" fill-opacity="0.56"/>
</g>
<path id="cloud4" d="M316.797 183.243C319.925 182.256 329.19 183.919 334.503 178.429C337.848 174.973 340.608 168.889 346.928 169.002C354.093 169.129 362.263 171.967 363.626 175.677C364.989 179.387 374.927 177.458 380.149 183.243C385.371 189.028 403.566 189.839 394.515 195.997L314.77 195.997C307.722 196.173 303.165 187.545 316.797 183.243Z" fill="white" fill-opacity="0.56"/>
<g id="plane" clip-path="url(#clip1_354_501)">
<g id="Form_1_1_">
<g id="Form_1">
<path id="Vector_6" d="M245.817 65.8249L238.617 73.8642L249.076 70.2374L245.817 65.8249Z" fill="url(#paint0_linear_354_501)"/>
</g>
</g>
<g id="Form_2_1_">
<g id="Form_2">
<path id="Vector_7" d="M232.832 48.3084L254.882 78.0707L293.069 55.0228L232.832 48.3084Z" fill="url(#paint1_linear_354_501)"/>
</g>
</g>
<g id="Form_3_1_">
<g id="Form_3">
<path id="Vector_8" d="M240.521 58.6861L238.617 73.8642L245.817 65.8249L293.069 55.0227L240.521 58.6861Z" fill="url(#paint2_linear_354_501)"/>
</g>
</g>
</g>
<g id="plane_2" clip-path="url(#clip2_354_501)">
<g id="Form_1_1__2">
<g id="Form_1_2">
<path id="Vector_9" d="M425.379 187.077L422.614 197.508L430.286 189.529L425.379 187.077Z" fill="url(#paint3_linear_354_501)"/>
</g>
</g>
<g id="Form_2_1__2">
<g id="Form_2_2">
<path id="Vector_10" d="M405.857 177.365L439.016 193.872L462.578 156L405.857 177.365Z" fill="url(#paint4_linear_354_501)"/>
</g>
</g>
<g id="Form_3_1__2">
<g id="Form_3_2">
<path id="Vector_11" d="M417.42 183.121L422.615 197.509L425.379 187.077L462.578 156L417.42 183.121Z" fill="url(#paint5_linear_354_501)"/>
</g>
</g>
</g>
<g id="plane_3" clip-path="url(#clip3_354_501)">
<g id="Form_1_1__3">
<g id="Form_1_3">
<path id="Vector_12" d="M533.938 94.8662L523.775 98.496L534.697 100.299L533.938 94.8662Z" fill="url(#paint6_linear_354_501)"/>
</g>
</g>
<g id="Form_2_1__3">
<g id="Form_2_3">
<path id="Vector_13" d="M530.886 73.2763L536.063 109.953L580.62 107.92L530.886 73.2763Z" fill="url(#paint7_linear_354_501)"/>
</g>
</g>
<g id="Form_3_1__3">
<g id="Form_3_3">
<path id="Vector_14" d="M532.692 86.0655L523.777 98.4958L533.94 94.866L580.62 107.92L532.692 86.0655Z" fill="url(#paint8_linear_354_501)"/>
</g>
</g>
</g>
<g id="plane_4" clip-path="url(#clip4_354_501)">
<g id="Form_1_1__4">
<g id="Form_1_4">
<path id="Vector_15" d="M106.321 124.866L98.0123 131.753L108.892 129.712L106.321 124.866Z" fill="url(#paint9_linear_354_501)"/>
</g>
</g>
<g id="Form_2_1__4">
<g id="Form_2_4">
<path id="Vector_16" d="M96.0668 105.623L113.476 138.318L154.65 121.167L96.0668 105.623Z" fill="url(#paint10_linear_354_501)"/>
</g>
</g>
<g id="Form_3_1__4">
<g id="Form_3_4">
<path id="Vector_17" d="M102.137 117.023L98.0111 131.753L106.32 124.866L154.65 121.167L102.137 117.023Z" fill="url(#paint11_linear_354_501)"/>
</g>
</g>
</g>
</g>
<defs>
<linearGradient id="paint0_linear_354_501" x1="243.853" y1="73.7902" x2="243.741" y2="65.8546" gradientUnits="userSpaceOnUse">
<stop stop-color="#B2D2E7"/>
<stop offset="1" stop-color="#AAC8DD"/>
</linearGradient>
<linearGradient id="paint1_linear_354_501" x1="263.041" y1="77.9554" x2="262.616" y2="47.8876" gradientUnits="userSpaceOnUse">
<stop stop-color="#F0F9FF"/>
<stop offset="1" stop-color="white"/>
</linearGradient>
<linearGradient id="paint2_linear_354_501" x1="265.874" y1="73.4791" x2="265.619" y2="55.4106" gradientUnits="userSpaceOnUse">
<stop stop-color="#C8E0F0"/>
<stop offset="1" stop-color="#E9F3F9"/>
</linearGradient>
<linearGradient id="paint3_linear_354_501" x1="427.245" y1="195.066" x2="423.542" y2="188.046" gradientUnits="userSpaceOnUse">
<stop stop-color="#B2D2E7"/>
<stop offset="1" stop-color="#AAC8DD"/>
</linearGradient>
<linearGradient id="paint4_linear_354_501" x1="446.233" y1="190.066" x2="432.204" y2="163.468" gradientUnits="userSpaceOnUse">
<stop stop-color="#F0F9FF"/>
<stop offset="1" stop-color="white"/>
</linearGradient>
<linearGradient id="paint5_linear_354_501" x1="446.726" y1="184.791" x2="438.295" y2="168.808" gradientUnits="userSpaceOnUse">
<stop stop-color="#C8E0F0"/>
<stop offset="1" stop-color="#E9F3F9"/>
</linearGradient>
<linearGradient id="paint6_linear_354_501" x1="528.411" y1="100.929" x2="532.099" y2="93.9016" gradientUnits="userSpaceOnUse">
<stop stop-color="#B2D2E7"/>
<stop offset="1" stop-color="#AAC8DD"/>
</linearGradient>
<linearGradient id="paint7_linear_354_501" x1="543.287" y1="113.745" x2="557.261" y2="87.1181" gradientUnits="userSpaceOnUse">
<stop stop-color="#F0F9FF"/>
<stop offset="1" stop-color="white"/>
</linearGradient>
<linearGradient id="paint8_linear_354_501" x1="547.914" y1="111.163" x2="556.312" y2="95.1626" gradientUnits="userSpaceOnUse">
<stop stop-color="#C8E0F0"/>
<stop offset="1" stop-color="#E9F3F9"/>
</linearGradient>
<linearGradient id="paint9_linear_354_501" x1="103.201" y1="132.454" x2="104.263" y2="124.589" gradientUnits="userSpaceOnUse">
<stop stop-color="#B2D2E7"/>
<stop offset="1" stop-color="#AAC8DD"/>
</linearGradient>
<linearGradient id="paint10_linear_354_501" x1="121.562" y1="139.409" x2="125.586" y2="109.609" gradientUnits="userSpaceOnUse">
<stop stop-color="#F0F9FF"/>
<stop offset="1" stop-color="white"/>
</linearGradient>
<linearGradient id="paint11_linear_354_501" x1="125.026" y1="135.401" x2="127.444" y2="117.494" gradientUnits="userSpaceOnUse">
<stop stop-color="#C8E0F0"/>
<stop offset="1" stop-color="#E9F3F9"/>
</linearGradient>
<clipPath id="clip0_354_501">
<rect width="600" height="200" fill="white"/>
</clipPath>
<clipPath id="clip1_354_501">
<rect width="60" height="31.875" fill="white" transform="translate(234.98 40) rotate(14.5)"/>
</clipPath>
<clipPath id="clip2_354_501">
<rect width="60" height="31.875" fill="white" transform="translate(404 168.986) rotate(-12.5)"/>
</clipPath>
<clipPath id="clip3_354_501">
<rect width="60" height="31.875" fill="white" transform="translate(536.738 67) rotate(43)"/>
</clipPath>
<clipPath id="clip4_354_501">
<rect width="60" height="31.875" fill="white" transform="translate(99.4199 97.7234) rotate(23)"/>
</clipPath>
</defs>
</svg>
