<svg width="600" height="200" viewBox="0 0 600 200" fill="none" xmlns="http://www.w3.org/2000/svg">
<g id="Frame 36" clip-path="url(#clip0_340_443)">
<g id="earth">
<path id="Vector" d="M299.999 346.001C384.498 346.001 452.998 277.501 452.998 193.002C452.998 108.503 384.498 40.0029 299.999 40.0029C215.5 40.0029 147 108.503 147 193.002C147 277.501 215.5 346.001 299.999 346.001Z" fill="#6AA6FF"/>
<path id="Vector_2" d="M344.221 81.5715C343.162 82.9433 342.067 84.3931 341.797 86.1052C341.356 88.8999 343.193 91.4907 344.931 93.723C347.569 97.1118 350.518 100.711 354.686 101.75C362.453 103.687 369.403 95.9111 377.382 95.2708C383.79 94.7565 389.737 98.9191 396.161 99.1518C403.449 99.4162 407.213 92.4723 408.687 85.3304C396.982 73.5143 383.363 63.6008 368.334 56.085C362.477 63.6672 350.078 73.9912 344.221 81.5715Z" fill="#77F57C"/>
<path id="Vector_3" d="M445.98 147.072C443.152 155.696 435.204 153.414 424.896 154.207C411.661 155.225 403.618 148.717 391.394 146.287C380.049 144.032 370.079 151.846 364.778 161.253C360.842 168.236 354.675 183.692 359.855 190.826C362.33 194.235 366.045 196.492 369.658 198.658C374.861 201.777 380.09 204.908 385.715 207.178C392.182 209.787 399.603 211.572 403.716 217.203C407.104 221.839 407.378 228.041 406.79 233.754C405.192 249.261 391.687 263.025 404.017 277.115C408.65 282.409 414.956 285.337 421.991 285.344C441.448 259.679 453 227.692 453 193.002C452.998 176.998 450.537 161.571 445.98 147.072Z" fill="#77F57C"/>
<path id="Vector_4" d="M307.128 71.146C312.683 73.6773 319.67 71.2921 323.507 66.545C327.345 61.7978 330.893 48.9877 329.995 42.9485C320.294 41.02 310.265 40 299.998 40C297.273 40 294.567 40.074 291.877 40.2144C293.71 45.8297 296.972 50.7018 297.957 56.5344C298.953 62.4419 301.677 68.6619 307.128 71.146Z" fill="#77F57C"/>
<path id="Vector_5" d="M179.505 151.029C186.946 158.863 195.131 165.988 203.916 172.277C206.327 174.004 208.932 175.857 209.889 178.664C212.675 186.824 207.892 195.634 212.767 204.935C217.375 213.729 227.554 219.215 230.185 228.788C232.238 236.255 229.083 244.36 230.866 251.897C233.028 261.038 241.854 267.208 245.042 276.043C247.071 281.664 246.637 287.881 248.119 293.67C249.6 299.459 254.266 305.362 260.217 304.818C267.407 304.161 270.36 295.297 270.922 288.099C271.484 280.901 272.222 272.22 278.667 268.966C282.095 267.235 286.573 267.504 289.255 264.756C293.713 260.191 289.229 252.712 289.382 246.333C289.545 239.533 295.138 234.272 300.311 229.855C306.828 224.289 313.345 218.722 319.861 213.155C324.387 209.328 325.543 202.475 323.686 196.846C321.83 191.217 317.446 186.725 312.514 183.438C307.21 179.902 300.38 177.525 294.495 179.977C290.016 181.843 286.552 186.312 281.707 186.592C277.24 186.85 273.386 183.303 271.243 179.374C269.101 175.445 268.09 170.976 265.919 167.063C259.685 155.83 249.595 156.514 238.715 154.832C227.73 153.133 216.558 148.004 208.372 140.499C207.061 139.296 205.76 137.959 205.24 136.257C202.33 126.736 219.194 122.523 225.026 122.716C229.808 122.872 234.686 124.267 239.292 122.976C243.641 121.758 246.967 118.363 250.662 115.768C261.121 108.424 276.405 118.438 278.428 98.5732C279.22 90.7929 276.209 83.1847 273.255 75.9428C268.972 65.4429 265.119 55.4842 262.307 44.6853C218.791 55.7111 182.715 85.3862 163.066 124.706C168.297 130.335 166.765 127.705 168.959 135.079C170.794 141.247 175.073 146.363 179.505 151.029Z" fill="#77F57C"/>
</g>
<path id="cloud1" d="M446.872 134.206C453.467 132.017 468.267 129.536 479.4 117.585C486.408 110.061 496.952 102.775 510.318 102.902C525.471 103.046 530.553 109.129 533.506 117.113C536.459 125.097 555.961 120.763 567.112 133.157C578.263 145.55 623.462 147.402 611.454 160.308L442.824 161.78C427.923 162.29 418.126 143.746 446.872 134.206Z" fill="white" fill-opacity="0.56"/>
<path id="cloud1_2" d="M17.8717 32.2059C24.4666 30.017 39.2673 27.5363 50.3995 15.5852C57.4078 8.06138 67.952 0.775343 81.3183 0.902131C96.4715 1.04587 101.553 7.1289 104.506 15.113C107.459 23.0971 126.961 18.7626 138.112 31.1566C149.263 43.5505 194.462 45.4017 182.454 58.3083L13.8243 59.78C-1.07686 60.2899 -10.8737 41.7463 17.8717 32.2059Z" fill="white" fill-opacity="0.56"/>
<path id="cloud2" d="M492.056 50.8715C484.254 48.3855 461.145 52.5744 447.891 38.7477C439.548 30.0431 432.662 14.7199 416.898 15.0039C399.026 15.3258 378.648 22.4729 375.247 31.8158C371.847 41.1587 347.058 36.3014 334.033 50.8715C321.008 65.4415 275.621 67.4833 298.199 82.9933L497.113 82.9933C514.695 83.4365 526.059 61.7071 492.056 50.8715Z" fill="white" fill-opacity="0.56"/>
<g id="cloud3">
<path id="Rectangle 71" d="M238.334 130.159C234.956 129.037 227.374 127.767 221.672 121.645C218.082 117.791 212.681 114.059 205.835 114.124C198.073 114.198 195.47 117.314 193.958 121.403C192.445 125.493 182.456 123.273 176.744 129.621C171.032 135.969 147.88 136.918 154.031 143.529L240.407 144.283C248.039 144.544 253.058 135.045 238.334 130.159Z" fill="white" fill-opacity="0.56"/>
<path id="Rectangle 70" d="M206.92 131.393C200.606 129.356 181.902 132.788 171.175 121.459C164.421 114.326 158.849 101.771 146.089 102.003C131.624 102.267 115.13 108.123 112.378 115.779C109.626 123.434 89.5621 119.454 79.0199 131.393C68.4776 143.332 31.7426 145.005 50.0164 157.713L211.014 157.713C225.244 158.077 234.442 140.272 206.92 131.393Z" fill="white" fill-opacity="0.56"/>
</g>
<path id="cloud4" d="M315.797 176.243C318.925 175.256 328.19 176.919 333.503 171.429C336.848 167.973 339.608 161.889 345.928 162.002C353.093 162.129 361.263 164.967 362.626 168.677C363.989 172.387 373.927 170.458 379.149 176.243C384.371 182.028 402.566 182.839 393.515 188.997L313.77 188.997C306.722 189.173 302.165 180.545 315.797 176.243Z" fill="white" fill-opacity="0.56"/>
<g id="plane" clip-path="url(#clip1_340_443)">
<g id="Form_1_1_">
<g id="Form_1">
<path id="Vector_6" d="M244.817 58.8249L237.617 66.8642L248.076 63.2374L244.817 58.8249Z" fill="url(#paint0_linear_340_443)"/>
</g>
</g>
<g id="Form_2_1_">
<g id="Form_2">
<path id="Vector_7" d="M231.832 41.3084L253.882 71.0707L292.069 48.0228L231.832 41.3084Z" fill="url(#paint1_linear_340_443)"/>
</g>
</g>
<g id="Form_3_1_">
<g id="Form_3">
<path id="Vector_8" d="M239.521 51.6861L237.617 66.8642L244.817 58.8249L292.069 48.0227L239.521 51.6861Z" fill="url(#paint2_linear_340_443)"/>
</g>
</g>
</g>
<g id="plane_2" clip-path="url(#clip2_340_443)">
<g id="Form_1_1__2">
<g id="Form_1_2">
<path id="Vector_9" d="M424.379 180.077L421.614 190.508L429.286 182.529L424.379 180.077Z" fill="url(#paint3_linear_340_443)"/>
</g>
</g>
<g id="Form_2_1__2">
<g id="Form_2_2">
<path id="Vector_10" d="M404.857 170.365L438.016 186.872L461.578 149L404.857 170.365Z" fill="url(#paint4_linear_340_443)"/>
</g>
</g>
<g id="Form_3_1__2">
<g id="Form_3_2">
<path id="Vector_11" d="M416.42 176.121L421.615 190.509L424.379 180.077L461.578 149L416.42 176.121Z" fill="url(#paint5_linear_340_443)"/>
</g>
</g>
</g>
<g id="plane_3" clip-path="url(#clip3_340_443)">
<g id="Form_1_1__3">
<g id="Form_1_3">
<path id="Vector_12" d="M532.938 87.8662L522.775 91.496L533.697 93.299L532.938 87.8662Z" fill="url(#paint6_linear_340_443)"/>
</g>
</g>
<g id="Form_2_1__3">
<g id="Form_2_3">
<path id="Vector_13" d="M529.886 66.2763L535.063 102.953L579.62 100.92L529.886 66.2763Z" fill="url(#paint7_linear_340_443)"/>
</g>
</g>
<g id="Form_3_1__3">
<g id="Form_3_3">
<path id="Vector_14" d="M531.692 79.0655L522.777 91.4958L532.94 87.866L579.62 100.92L531.692 79.0655Z" fill="url(#paint8_linear_340_443)"/>
</g>
</g>
</g>
<g id="plane_4" clip-path="url(#clip4_340_443)">
<g id="Form_1_1__4">
<g id="Form_1_4">
<path id="Vector_15" d="M105.321 117.866L97.0123 124.753L107.892 122.712L105.321 117.866Z" fill="url(#paint9_linear_340_443)"/>
</g>
</g>
<g id="Form_2_1__4">
<g id="Form_2_4">
<path id="Vector_16" d="M95.0668 98.6229L112.476 131.318L153.65 114.167L95.0668 98.6229Z" fill="url(#paint10_linear_340_443)"/>
</g>
</g>
<g id="Form_3_1__4">
<g id="Form_3_4">
<path id="Vector_17" d="M101.137 110.023L97.0111 124.753L105.32 117.866L153.65 114.167L101.137 110.023Z" fill="url(#paint11_linear_340_443)"/>
</g>
</g>
</g>
</g>
<defs>
<linearGradient id="paint0_linear_340_443" x1="242.853" y1="66.7902" x2="242.741" y2="58.8546" gradientUnits="userSpaceOnUse">
<stop stop-color="#B2D2E7"/>
<stop offset="1" stop-color="#AAC8DD"/>
</linearGradient>
<linearGradient id="paint1_linear_340_443" x1="262.041" y1="70.9554" x2="261.616" y2="40.8876" gradientUnits="userSpaceOnUse">
<stop stop-color="#F0F9FF"/>
<stop offset="1" stop-color="white"/>
</linearGradient>
<linearGradient id="paint2_linear_340_443" x1="264.874" y1="66.4791" x2="264.619" y2="48.4106" gradientUnits="userSpaceOnUse">
<stop stop-color="#C8E0F0"/>
<stop offset="1" stop-color="#E9F3F9"/>
</linearGradient>
<linearGradient id="paint3_linear_340_443" x1="426.245" y1="188.066" x2="422.542" y2="181.046" gradientUnits="userSpaceOnUse">
<stop stop-color="#B2D2E7"/>
<stop offset="1" stop-color="#AAC8DD"/>
</linearGradient>
<linearGradient id="paint4_linear_340_443" x1="445.233" y1="183.066" x2="431.204" y2="156.468" gradientUnits="userSpaceOnUse">
<stop stop-color="#F0F9FF"/>
<stop offset="1" stop-color="white"/>
</linearGradient>
<linearGradient id="paint5_linear_340_443" x1="445.726" y1="177.791" x2="437.295" y2="161.808" gradientUnits="userSpaceOnUse">
<stop stop-color="#C8E0F0"/>
<stop offset="1" stop-color="#E9F3F9"/>
</linearGradient>
<linearGradient id="paint6_linear_340_443" x1="527.411" y1="93.929" x2="531.099" y2="86.9016" gradientUnits="userSpaceOnUse">
<stop stop-color="#B2D2E7"/>
<stop offset="1" stop-color="#AAC8DD"/>
</linearGradient>
<linearGradient id="paint7_linear_340_443" x1="542.287" y1="106.745" x2="556.261" y2="80.1181" gradientUnits="userSpaceOnUse">
<stop stop-color="#F0F9FF"/>
<stop offset="1" stop-color="white"/>
</linearGradient>
<linearGradient id="paint8_linear_340_443" x1="546.914" y1="104.163" x2="555.312" y2="88.1626" gradientUnits="userSpaceOnUse">
<stop stop-color="#C8E0F0"/>
<stop offset="1" stop-color="#E9F3F9"/>
</linearGradient>
<linearGradient id="paint9_linear_340_443" x1="102.201" y1="125.454" x2="103.263" y2="117.589" gradientUnits="userSpaceOnUse">
<stop stop-color="#B2D2E7"/>
<stop offset="1" stop-color="#AAC8DD"/>
</linearGradient>
<linearGradient id="paint10_linear_340_443" x1="120.562" y1="132.409" x2="124.586" y2="102.609" gradientUnits="userSpaceOnUse">
<stop stop-color="#F0F9FF"/>
<stop offset="1" stop-color="white"/>
</linearGradient>
<linearGradient id="paint11_linear_340_443" x1="124.026" y1="128.401" x2="126.444" y2="110.494" gradientUnits="userSpaceOnUse">
<stop stop-color="#C8E0F0"/>
<stop offset="1" stop-color="#E9F3F9"/>
</linearGradient>
<clipPath id="clip0_340_443">
<rect width="600" height="200" fill="white"/>
</clipPath>
<clipPath id="clip1_340_443">
<rect width="60" height="31.875" fill="white" transform="translate(233.98 33) rotate(14.5)"/>
</clipPath>
<clipPath id="clip2_340_443">
<rect width="60" height="31.875" fill="white" transform="translate(403 161.986) rotate(-12.5)"/>
</clipPath>
<clipPath id="clip3_340_443">
<rect width="60" height="31.875" fill="white" transform="translate(535.738 60) rotate(43)"/>
</clipPath>
<clipPath id="clip4_340_443">
<rect width="60" height="31.875" fill="white" transform="translate(98.4199 90.7234) rotate(23)"/>
</clipPath>
</defs>
</svg>
