<svg width="130" height="130" viewBox="0 0 130 130" fill="none" xmlns="http://www.w3.org/2000/svg">
<g id="Frame 35">
<g id="wpf:airplane-takeoff" clip-path="url(#clip0_291_482)">
<path id="Vector" d="M70.6671 17.1814C70.2209 17.2269 69.7852 17.3458 69.3777 17.5333L59.8284 21.7908C59.5452 21.9177 59.3496 21.772 59.0859 21.5758C58.6265 21.2383 57.9465 20.7608 57.7384 20.5995C57.4096 20.3477 56.5946 20.5033 56.8196 21.0095L58.0109 23.6852C58.4021 24.5602 60.4359 24.3514 63.9877 22.7677C64.2896 22.6327 64.6827 22.4508 65.0227 22.2989L64.124 27.0839C64.0084 27.5483 64.1271 27.6789 64.2802 27.6114L64.8077 27.377C65.0802 27.2552 65.4577 26.8314 65.6477 26.4195L68.2259 20.8533C70.7946 19.6533 73.1452 18.4495 72.9715 18.0608C72.7671 17.5995 71.8771 17.0683 70.6671 17.1808V17.1814ZM61.1552 17.8258C60.924 17.822 60.7252 17.8439 60.589 17.9045L60.0615 18.1383C59.909 18.207 59.9315 18.382 60.3546 18.607L62.4834 19.8964L64.8465 18.8414L61.859 17.9239C61.6299 17.86 61.3931 17.8272 61.1552 17.8264V17.8258ZM57.269 30.912C57.1032 30.9275 56.9504 31.0082 56.8442 31.1364C56.7379 31.2646 56.6869 31.4297 56.7024 31.5955C56.7179 31.7612 56.7986 31.914 56.9268 32.0203C57.055 32.1266 57.2201 32.1775 57.3859 32.162H72.3859C72.5516 32.162 72.7106 32.0962 72.8278 31.979C72.945 31.8618 73.0109 31.7028 73.0109 31.537C73.0109 31.3713 72.945 31.2123 72.8278 31.0951C72.7106 30.9779 72.5516 30.912 72.3859 30.912H57.3859C57.3663 30.9111 57.3467 30.9111 57.3271 30.912C57.3075 30.9111 57.2879 30.9111 57.2684 30.912H57.269ZM620.511 934.037V935.287H636.761V934.037H620.511ZM623.011 937.162V938.412H634.261V937.162H623.011ZM620.511 940.287V941.537H636.761V940.287H620.511ZM623.011 943.412V944.662H634.261V943.412H623.011ZM620.511 946.537V947.787H636.761V946.537H620.511Z" fill="#358F4E"/>
</g>
<g id="bi:star-fill" clip-path="url(#clip1_291_482)">
<path id="Vector_2" d="M16.0868 69.8658C15.8108 70.0074 15.4975 69.7592 15.5533 69.4423L16.1469 66.0593L13.6272 63.659C13.3919 63.4344 13.5142 63.0239 13.8296 62.9795L17.3328 62.4817L18.8948 59.3869C19.0357 59.108 19.4169 59.108 19.5578 59.3869L21.1199 62.4817L24.6231 62.9795C24.9385 63.0239 25.0608 63.4344 24.8248 63.659L22.3058 66.0593L22.8994 69.4423C22.9552 69.7592 22.6419 70.0074 22.3658 69.8658L19.2253 68.2522L16.0861 69.8658H16.0868Z" fill="#358F4E"/>
</g>
<g id="bi:star-fill_2" clip-path="url(#clip2_291_482)">
<path id="Vector_3" d="M107.636 70.3233C107.36 70.4649 107.047 70.2167 107.103 69.8999L107.696 66.5168L105.176 64.1165C104.941 63.8919 105.063 63.4814 105.379 63.4371L108.882 62.9393L110.444 59.8445C110.585 59.5655 110.966 59.5655 111.107 59.8445L112.669 62.9393L116.172 63.4371C116.488 63.4814 116.61 63.8919 116.374 64.1165L113.855 66.5168L114.449 69.8999C114.504 70.2167 114.191 70.4649 113.915 70.3233L110.775 68.7097L107.635 70.3233H107.636Z" fill="#358F4E"/>
</g>
<circle id="Ellipse 24" cx="65" cy="65" r="64" stroke="#358F4E" stroke-width="2" stroke-dasharray="3.82 3.82"/>
<circle id="Ellipse 25" cx="65" cy="65" r="55.5317" stroke="#358F4E" stroke-width="2"/>
<line id="Line 32" x1="11.9858" y1="49.3521" x2="117.556" y2="49.3521" stroke="#358F4E" stroke-width="2" stroke-linecap="round"/>
<line id="Line 33" x1="11.9858" y1="81.6233" x2="117.556" y2="81.6233" stroke="#358F4E" stroke-width="2" stroke-linecap="round"/>
<text id="WARSAW" fill="#358F4E" xml:space="preserve" style="white-space: pre" font-family="Athiti" font-size="11" font-weight="600" letter-spacing="0em"><tspan x="45" y="67.5">WARSAWw</tspan></text>
<text id="ARRIVAL" fill="#358F4E" xml:space="preserve" style="white-space: pre" font-family="Athiti" font-size="10" font-weight="600" letter-spacing="0em"><tspan x="46" y="40.5">ARRIVAL</tspan></text>
<text id="12 DEC 2004" fill="#358F4E" xml:space="preserve" style="white-space: pre" font-family="Athiti" font-size="7" font-weight="600" letter-spacing="0em"><tspan x="45" y="92.95">12 DEC 2004</tspan></text>
<text id="POLAND" fill="#358F4E" xml:space="preserve" style="white-space: pre" font-family="Athiti" font-size="10" font-weight="600" letter-spacing="0em"><tspan x="47" y="109.5">POLAND</tspan></text>
</g>
<defs>
<clipPath id="clip0_291_482">
<rect width="16.25" height="16.25" fill="white" transform="translate(56.7607 12.5879)"/>
</clipPath>
<clipPath id="clip1_291_482">
<rect width="11.4437" height="11.4437" fill="white" transform="translate(13.5034 58.8203)"/>
</clipPath>
<clipPath id="clip2_291_482">
<rect width="11.4437" height="11.4437" fill="white" transform="translate(105.053 59.2781)"/>
</clipPath>
</defs>
</svg>
