<svg width="91" height="91" viewBox="0 0 91 91" fill="none" xmlns="http://www.w3.org/2000/svg">
<g id="2">
<g id="wpf:airplane-takeoff" clip-path="url(#clip0_264_465)">
<path id="Vector" d="M49.8713 12.8662C49.5626 12.8977 49.2612 12.98 48.9793 13.1097L42.3726 16.0552C42.1767 16.143 42.0413 16.0422 41.8589 15.9065C41.5411 15.673 41.0706 15.3426 40.9266 15.231C40.6992 15.0568 40.1353 15.1644 40.291 15.5147L41.1151 17.3658C41.3858 17.9712 42.7929 17.8268 45.2502 16.7311C45.4591 16.6377 45.7311 16.5118 45.9663 16.4067L45.3445 19.7172C45.2645 20.0385 45.3467 20.1289 45.4526 20.0822L45.8175 19.92C46.0061 19.8357 46.2672 19.5425 46.3987 19.2576L48.1824 15.4066C49.9595 14.5764 51.5858 13.7436 51.4656 13.4746C51.3242 13.1555 50.7085 12.7879 49.8713 12.8658V12.8662ZM43.2906 13.312C43.1306 13.3094 42.9931 13.3246 42.8988 13.3665L42.5339 13.5282C42.4283 13.5758 42.4439 13.6969 42.7367 13.8525L44.2094 14.7446L45.8443 14.0147L43.7775 13.3799C43.6189 13.3357 43.4552 13.313 43.2906 13.3125V13.312ZM40.6019 22.3657C40.4872 22.3764 40.3815 22.4323 40.308 22.521C40.2344 22.6096 40.1992 22.7239 40.2099 22.8386C40.2206 22.9532 40.2765 23.059 40.3651 23.1325C40.4538 23.206 40.568 23.2413 40.6827 23.2305H51.0604C51.1751 23.2305 51.2851 23.185 51.3662 23.1039C51.4473 23.0228 51.4929 22.9128 51.4929 22.7981C51.4929 22.6834 51.4473 22.5735 51.3662 22.4924C51.2851 22.4113 51.1751 22.3657 51.0604 22.3657H40.6827C40.6692 22.3651 40.6556 22.3651 40.6421 22.3657C40.6285 22.3651 40.615 22.3651 40.6014 22.3657H40.6019ZM430.28 647.191V648.056H441.522V647.191H430.28ZM432.009 649.353V650.218H439.793V649.353H432.009ZM430.28 651.515V652.38H441.522V651.515H430.28ZM432.009 653.677V654.542H439.793V653.677H432.009ZM430.28 655.839V656.704H441.522V655.839H430.28Z" fill="#358F4E"/>
</g>
<g id="bi:star-fill" clip-path="url(#clip1_264_465)">
<path id="Vector_2" d="M12.1099 49.3158C11.9189 49.4138 11.7022 49.2421 11.7408 49.0228L12.1515 46.6823L10.4082 45.0217C10.2454 44.8663 10.33 44.5822 10.5482 44.5516L12.9719 44.2072L14.0526 42.066C14.1501 41.873 14.4138 41.873 14.5113 42.066L15.592 44.2072L18.0157 44.5516C18.2339 44.5822 18.3185 44.8663 18.1552 45.0217L16.4124 46.6823L16.8232 49.0228C16.8618 49.2421 16.645 49.4138 16.454 49.3158L14.2812 48.1994L12.1094 49.3158H12.1099Z" fill="#358F4E"/>
</g>
<g id="bi:star-fill_2" clip-path="url(#clip2_264_465)">
<path id="Vector_3" d="M75.4468 49.6325C75.2558 49.7305 75.0391 49.5588 75.0777 49.3396L75.4884 46.999L73.7451 45.3384C73.5823 45.183 73.6669 44.899 73.8851 44.8683L76.3088 44.5239L77.3895 42.3827C77.487 42.1898 77.7507 42.1898 77.8482 42.3827L78.9289 44.5239L81.3526 44.8683C81.5708 44.899 81.6554 45.183 81.4921 45.3384L79.7494 46.999L80.1601 49.3396C80.1987 49.5588 79.9819 49.7305 79.7909 49.6325L77.6181 48.5162L75.4463 49.6325H75.4468Z" fill="#358F4E"/>
</g>
<circle id="Ellipse 24" cx="45.9496" cy="45.9495" r="44.1784" stroke="#358F4E" stroke-width="1.58345" stroke-dasharray="1.58 1.58"/>
<circle id="Ellipse 25" cx="45.9502" cy="45.9494" r="38.3196" stroke="#358F4E" stroke-width="1.58345"/>
<line id="Line 32" x1="9.37181" y1="35.0236" x2="82.2107" y2="35.0236" stroke="#358F4E" stroke-width="1.58345" stroke-linecap="round"/>
<line id="Line 33" x1="9.37181" y1="57.3503" x2="82.2107" y2="57.3503" stroke="#358F4E" stroke-width="1.58345" stroke-linecap="round"/>
<text id="WARSAW" transform="translate(30.127 39.1492)" fill="#358F4E" xml:space="preserve" style="white-space: pre" font-family="Athiti" font-size="8" font-weight="600" letter-spacing="0em"><tspan x="0" y="9.3">WARSAW</tspan></text>
<text id="ARRIVAL" transform="translate(31.2246 19.8225)" fill="#358F4E" xml:space="preserve" style="white-space: pre" font-family="Athiti" font-size="7.91727" font-weight="600" letter-spacing="0em"><tspan x="0" y="9.27105">ARRIVAL</tspan></text>
<text id="12 DEC 2004" transform="translate(26 60)" fill="#358F4E" xml:space="preserve" style="white-space: pre" font-family="Athiti" font-size="7" font-weight="600" letter-spacing="0em"><tspan x="0" y="7.95">12 DEC 2004</tspan></text>
<text id="POLAND" transform="translate(34 71)" fill="#358F4E" xml:space="preserve" style="white-space: pre" font-family="Athiti" font-size="6" font-weight="600" letter-spacing="0em"><tspan x="0" y="7.1">POLAND</tspan></text>
</g>
<defs>
<clipPath id="clip0_264_465">
<rect width="11.2425" height="11.2425" fill="white" transform="translate(40.25 9.68835)"/>
</clipPath>
<clipPath id="clip1_264_465">
<rect width="7.91728" height="7.91728" fill="white" transform="translate(10.3223 41.6741)"/>
</clipPath>
<clipPath id="clip2_264_465">
<rect width="7.91728" height="7.91728" fill="white" transform="translate(73.6602 41.9908)"/>
</clipPath>
</defs>
</svg>
