<svg width="301" height="151" viewBox="0 0 301 151" fill="none" xmlns="http://www.w3.org/2000/svg">
<g id="2">
<text id="12 DEC 2004" fill="#9D7E10" xml:space="preserve" style="white-space: pre" font-family="Athiti" font-size="16.0376" font-weight="600" letter-spacing="0em"><tspan x="103.439" y="123.541">12 DEC 2004</tspan></text>
<path id="Ellipse 26" d="M298.531 75.7053C298.531 95.4813 282.457 113.817 255.483 127.304C228.605 140.743 191.361 149.102 150.134 149.102C108.908 149.102 71.6637 140.743 44.7855 127.304C17.8113 113.817 1.73804 95.4813 1.73804 75.7053C1.73804 55.9294 17.8113 37.5938 44.7855 24.1068C71.6637 10.6676 108.908 2.30908 150.134 2.30908C191.361 2.30908 228.605 10.6676 255.483 24.1068C282.457 37.5938 298.531 55.9294 298.531 75.7053Z" stroke="#9D7E10" stroke-width="3.20752"/>
<path id="Ellipse 27" d="M285.098 75.7054C285.098 92.5717 270.578 108.327 245.97 119.96C221.485 131.534 187.548 138.737 149.975 138.737C112.401 138.737 78.4638 131.534 53.9794 119.96C29.3716 108.327 14.8513 92.5717 14.8513 75.7054C14.8513 58.8391 29.3716 43.0841 53.9794 31.4512C78.4638 19.8767 112.401 12.6738 149.975 12.6738C187.548 12.6738 221.485 19.8767 245.97 31.4512C270.578 43.0841 285.098 58.8391 285.098 75.7054Z" stroke="#9D7E10" stroke-width="3.20752"/>
<text id="WARSAW" fill="#9D7E10" xml:space="preserve" style="white-space: pre" font-family="Athiti" font-size="25.6602" font-weight="600" letter-spacing="0em"><tspan x="98.6421" y="50.6278">WARSAW</tspan></text>
<text id="POLAND" fill="#9D7E10" xml:space="preserve" style="white-space: pre" font-family="Athiti" font-size="19.2451" font-weight="bold" letter-spacing="0em"><tspan x="114.633" y="98.0849">POLAND</tspan></text>
<line id="Line 34" x1="67.1398" y1="60.1092" x2="233.129" y2="60.1092" stroke="#9D7E10" stroke-width="0.962257" stroke-linecap="round" stroke-dasharray="3.21 3.21"/>
<g id="wpf:airplane-takeoff" clip-path="url(#clip0_73_496)">
<path id="Vector" d="M80.9655 73.5476C80.1575 73.6218 79.3686 73.8156 78.6308 74.1212L61.3395 81.0609C60.8268 81.2677 60.4726 81.0303 59.995 80.7105C59.1632 80.1603 57.9319 79.382 57.5551 79.1192C56.9598 78.7086 55.484 78.9623 55.8915 79.7875L58.0485 84.1487C58.7569 85.575 62.4395 85.2347 68.871 82.6532C69.4176 82.4332 70.1294 82.1367 70.7451 81.8892L69.1177 89.6887C68.9083 90.4456 69.1233 90.6586 69.4006 90.5485L70.3558 90.1665C70.8492 89.9678 71.5327 89.2771 71.8768 88.6058L76.545 79.5328C81.1964 77.5768 85.4527 75.6147 85.1381 74.981C84.768 74.2292 83.1565 73.3632 80.9655 73.5466V73.5476ZM63.7421 74.598C63.3234 74.5918 62.9635 74.6275 62.7168 74.7263L61.7616 75.1073C61.4855 75.2194 61.5262 75.5046 62.2924 75.8714L66.147 77.9731L70.4259 76.2534L65.0164 74.7579C64.6015 74.6537 64.1728 74.6002 63.7421 74.599V74.598ZM56.7051 95.9286C56.405 95.9538 56.1283 96.0854 55.9359 96.2943C55.7435 96.5032 55.6512 96.7724 55.6793 97.0426C55.7073 97.3128 55.8535 97.5618 56.0855 97.735C56.3176 97.9082 56.6166 97.9913 56.9168 97.9661H84.0777C84.3778 97.9661 84.6657 97.8587 84.8779 97.6677C85.0901 97.4766 85.2094 97.2175 85.2094 96.9473C85.2094 96.6771 85.0901 96.418 84.8779 96.2269C84.6657 96.0359 84.3778 95.9286 84.0777 95.9286H56.9168C56.8813 95.9271 56.8458 95.9271 56.8104 95.9286C56.775 95.9271 56.7395 95.9271 56.704 95.9286H56.7051ZM1076.58 1568.02V1570.06H1106.01V1568.02H1076.58ZM1081.11 1573.12V1575.15H1101.48V1573.12H1081.11ZM1076.58 1578.21V1580.25H1106.01V1578.21H1076.58ZM1081.11 1583.3V1585.34H1101.48V1583.3H1081.11ZM1076.58 1588.4V1590.44H1106.01V1588.4H1076.58Z" fill="#9D7E10"/>
</g>
<g id="wpf:airplane-takeoff_2" clip-path="url(#clip1_73_496)">
<path id="Vector_2" d="M223.141 73.5476C223.949 73.6218 224.738 73.8156 225.476 74.1212L242.767 81.0609C243.28 81.2677 243.634 81.0303 244.112 80.7105C244.944 80.1603 246.175 79.382 246.552 79.1192C247.147 78.7086 248.623 78.9623 248.215 79.7875L246.058 84.1487C245.35 85.575 241.667 85.2347 235.236 82.6532C234.689 82.4332 233.978 82.1367 233.362 81.8892L234.989 89.6887C235.199 90.4456 234.984 90.6586 234.706 90.5485L233.751 90.1665C233.258 89.9678 232.574 89.2771 232.23 88.6058L227.562 79.5328C222.911 77.5768 218.654 75.6147 218.969 74.981C219.339 74.2292 220.95 73.3632 223.141 73.5466V73.5476ZM240.365 74.598C240.784 74.5918 241.143 74.6275 241.39 74.7263L242.345 75.1073C242.621 75.2194 242.581 75.5046 241.815 75.8714L237.96 77.9731L233.681 76.2534L239.091 74.7579C239.505 74.6537 239.934 74.6002 240.365 74.599V74.598ZM247.402 95.9286C247.702 95.9538 247.979 96.0854 248.171 96.2943C248.363 96.5032 248.456 96.7724 248.428 97.0426C248.4 97.3128 248.253 97.5618 248.021 97.735C247.789 97.9082 247.49 97.9913 247.19 97.9661H220.029C219.729 97.9661 219.441 97.8587 219.229 97.6677C219.017 97.4766 218.898 97.2175 218.898 96.9473C218.898 96.6771 219.017 96.418 219.229 96.2269C219.441 96.0359 219.729 95.9286 220.029 95.9286H247.19C247.226 95.9271 247.261 95.9271 247.297 95.9286C247.332 95.9271 247.367 95.9271 247.403 95.9286H247.402ZM-772.475 1568.02V1570.06H-801.9V1568.02H-772.475ZM-777.002 1573.12V1575.15H-797.373V1573.12H-777.002ZM-772.475 1578.21V1580.25H-801.9V1578.21H-772.475ZM-777.002 1583.3V1585.34H-797.373V1583.3H-777.002ZM-772.475 1588.4V1590.44H-801.9V1588.4H-772.475Z" fill="#9D7E10"/>
</g>
</g>
<defs>
<clipPath id="clip0_73_496">
<rect width="29.4243" height="26.4875" fill="white" transform="translate(55.7847 66.0605)"/>
</clipPath>
<clipPath id="clip1_73_496">
<rect width="29.4243" height="26.4875" fill="white" transform="matrix(-1 0 0 1 248.322 66.0605)"/>
</clipPath>
</defs>
</svg>
